
<svg width="16" height="16" viewBox="0 0 12 12" fill="none" xmlns="http://www.w3.org/2000/svg">

<g id="iconInfo" clip-path="url(#clip0_25284_1363)">
<path d="M6 8V6M6 4H6.005M11 6C11 8.76142 8.76142 11 6 11C3.23858 11 1 8.76142 1 6C1 3.23858 3.23858 1 6 1C8.76142 1 11 3.23858 11 6Z" stroke="#A0A0AB" stroke-width="1.3" stroke-linecap="round" stroke-linejoin="round"/>
</g>
<defs>
<clipPath id="clip0_25284_1363">
<rect width="12" height="12" fill="white"/>
</clipPath>
</defs>

<g id="iconAfter" clip-path="url(#clip0_25206_1370)">
<path d="M6.05998 5.99998C6.21672 5.55442 6.52608 5.17872 6.93328 4.9394C7.34048 4.70009 7.81924 4.61261 8.28476 4.69245C8.75028 4.7723 9.17252 5.01433 9.4767 5.37567C9.78087 5.737 9.94735 6.19433 9.94665 6.66665C9.94665 7.99998 7.94665 8.66665 7.94665 8.66665M7.99998 11.3333H8.00665M14.6666 7.99998C14.6666 11.6819 11.6819 14.6666 7.99998 14.6666C4.31808 14.6666 1.33331 11.6819 1.33331 7.99998C1.33331 4.31808 4.31808 1.33331 7.99998 1.33331C11.6819 1.33331 14.6666 4.31808 14.6666 7.99998Z" stroke="#A0A0AB" stroke-width="1.3" stroke-linecap="round" stroke-linejoin="round"/>
</g>
<g id="iconBefore">
<path d="M0.5 4C0.5 2.067 2.067 0.5 4 0.5H28C29.933 0.5 31.5 2.067 31.5 4V16C31.5 17.933 29.933 19.5 28 19.5H4C2.067 19.5 0.5 17.933 0.5 16V4Z" stroke="#E4E4E7"/>
<path d="M9.2983 14.196C8.96023 14.196 8.65057 14.1136 8.36932 13.9489C8.08807 13.7812 7.86364 13.5568 7.69602 13.2756C7.53125 12.9943 7.44886 12.6847 7.44886 12.3466C7.44886 12.0057 7.53125 11.6946 7.69602 11.4134C7.86364 11.1321 8.08807 10.9077 8.36932 10.7401C8.65057 10.5724 8.96023 10.4886 9.2983 10.4886H10.2869V8.77557H9.2983C8.96023 8.77557 8.65057 8.69318 8.36932 8.52841C8.08807 8.3608 7.86364 8.13778 7.69602 7.85938C7.53125 7.57812 7.44886 7.26705 7.44886 6.92614C7.44886 6.58523 7.53125 6.27557 7.69602 5.99716C7.86364 5.71591 8.08807 5.4929 8.36932 5.32812C8.65057 5.16051 8.96023 5.0767 9.2983 5.0767C9.6392 5.0767 9.95028 5.16051 10.2315 5.32812C10.5128 5.4929 10.7372 5.71591 10.9048 5.99716C11.0724 6.27557 11.1562 6.58523 11.1562 6.92614V7.90625H12.8693V6.92614C12.8693 6.58523 12.9517 6.27557 13.1165 5.99716C13.2841 5.71591 13.5071 5.4929 13.7855 5.32812C14.0668 5.16051 14.3778 5.0767 14.7188 5.0767C15.0597 5.0767 15.3693 5.16051 15.6477 5.32812C15.929 5.4929 16.152 5.71591 16.3168 5.99716C16.4844 6.27557 16.5682 6.58523 16.5682 6.92614C16.5682 7.26705 16.4844 7.57812 16.3168 7.85938C16.152 8.13778 15.929 8.3608 15.6477 8.52841C15.3693 8.69318 15.0597 8.77557 14.7188 8.77557H13.7386V10.4886H14.7188C15.0597 10.4886 15.3693 10.5724 15.6477 10.7401C15.929 10.9077 16.152 11.1321 16.3168 11.4134C16.4844 11.6946 16.5682 12.0057 16.5682 12.3466C16.5682 12.6847 16.4844 12.9943 16.3168 13.2756C16.152 13.5568 15.929 13.7812 15.6477 13.9489C15.3693 14.1136 15.0597 14.196 14.7188 14.196C14.3778 14.196 14.0668 14.1136 13.7855 13.9489C13.5071 13.7812 13.2841 13.5568 13.1165 13.2756C12.9517 12.9943 12.8693 12.6847 12.8693 12.3466V11.358H11.1562V12.3466C11.1562 12.6847 11.0724 12.9943 10.9048 13.2756C10.7372 13.5568 10.5128 13.7812 10.2315 13.9489C9.95028 14.1136 9.6392 14.196 9.2983 14.196ZM9.2983 13.3267C9.48011 13.3267 9.64489 13.2827 9.79261 13.1946C9.94318 13.1065 10.0625 12.9886 10.1506 12.8409C10.2415 12.6903 10.2869 12.5256 10.2869 12.3466V11.358H9.2983C9.11932 11.358 8.95455 11.4034 8.80398 11.4943C8.65625 11.5824 8.53835 11.7017 8.45028 11.8523C8.36222 12 8.31818 12.1648 8.31818 12.3466C8.31818 12.5256 8.36222 12.6903 8.45028 12.8409C8.53835 12.9886 8.65625 13.1065 8.80398 13.1946C8.95455 13.2827 9.11932 13.3267 9.2983 13.3267ZM9.2983 7.90625H10.2869V6.92614C10.2869 6.74432 10.2415 6.57955 10.1506 6.43182C10.0625 6.28409 9.94318 6.16619 9.79261 6.07812C9.64489 5.99006 9.48011 5.94602 9.2983 5.94602C9.11932 5.94602 8.95455 5.99006 8.80398 6.07812C8.65625 6.16619 8.53835 6.28409 8.45028 6.43182C8.36222 6.57955 8.31818 6.74432 8.31818 6.92614C8.31818 7.10795 8.36222 7.27415 8.45028 7.42472C8.53835 7.57244 8.65625 7.69034 8.80398 7.77841C8.95455 7.86364 9.11932 7.90625 9.2983 7.90625ZM13.7386 7.90625H14.7188C14.9006 7.90625 15.0653 7.86364 15.2131 7.77841C15.3608 7.69034 15.4787 7.57244 15.5668 7.42472C15.6548 7.27415 15.6989 7.10795 15.6989 6.92614C15.6989 6.74432 15.6548 6.57955 15.5668 6.43182C15.4787 6.28409 15.3608 6.16619 15.2131 6.07812C15.0653 5.99006 14.9006 5.94602 14.7188 5.94602C14.5369 5.94602 14.3707 5.99006 14.2202 6.07812C14.0724 6.16619 13.9545 6.28409 13.8665 6.43182C13.7813 6.57955 13.7386 6.74432 13.7386 6.92614V7.90625ZM14.7188 13.3267C14.9006 13.3267 15.0653 13.2827 15.2131 13.1946C15.3608 13.1065 15.4787 12.9886 15.5668 12.8409C15.6548 12.6903 15.6989 12.5256 15.6989 12.3466C15.6989 12.1648 15.6548 12 15.5668 11.8523C15.4787 11.7017 15.3608 11.5824 15.2131 11.4943C15.0653 11.4034 14.9006 11.358 14.7188 11.358H13.7386V12.3466C13.7386 12.5256 13.7813 12.6903 13.8665 12.8409C13.9545 12.9886 14.0724 13.1065 14.2202 13.1946C14.3707 13.2827 14.5369 13.3267 14.7188 13.3267ZM11.1562 10.4886H12.8693V8.77557H11.1562V10.4886ZM19.0685 14V5.27273H20.1254V9.60227H20.2276L24.1481 5.27273H25.5288L21.864 9.21023L25.5288 14H24.2504L21.2163 9.94318L20.1254 11.1705V14H19.0685Z" fill="#70707B"/>
</g>
<g id="search">
<svg width="16" height="16" viewBox="0 0 16 16" fill="none" xmlns="http://www.w3.org/2000/svg">
<path d="M14 14L11.6667 11.6667M13.3333 7.66667C13.3333 10.7963 10.7963 13.3333 7.66667 13.3333C4.53705 13.3333 2 10.7963 2 7.66667C2 4.53705 4.53705 2 7.66667 2C10.7963 2 13.3333 4.53705 13.3333 7.66667Z" stroke="#A0A0AB" stroke-width="1.5" stroke-linecap="round" stroke-linejoin="round"/>
</svg>
</g>
<g id="redSearch">
<path d="M14 14L11.6667 11.6667M13.3333 7.66667C13.3333 10.7963 10.7963 13.3333 7.66667 13.3333C4.53705 13.3333 2 10.7963 2 7.66667C2 4.53705 4.53705 2 7.66667 2C10.7963 2 13.3333 4.53705 13.3333 7.66667Z" stroke="#D92D20" stroke-width="1.5" stroke-linecap="round" stroke-linejoin="round"/>
</g>
<g id="afterRed">
<g clip-path="url(#clip0_25441_1199)">
<path d="M6.06016 6.00004C6.2169 5.55449 6.52626 5.17878 6.93347 4.93946C7.34067 4.70015 7.81943 4.61267 8.28495 4.69252C8.75047 4.77236 9.17271 5.01439 9.47688 5.37573C9.78106 5.73706 9.94753 6.19439 9.94683 6.66671C9.94683 8.00004 7.94683 8.66671 7.94683 8.66671M8.00016 11.3334H8.00683M14.6668 8.00004C14.6668 11.6819 11.6821 14.6667 8.00016 14.6667C4.31826 14.6667 1.3335 11.6819 1.3335 8.00004C1.3335 4.31814 4.31826 1.33337 8.00016 1.33337C11.6821 1.33337 14.6668 4.31814 14.6668 8.00004Z" stroke="#D92D20" stroke-width="1.3" stroke-linecap="round" stroke-linejoin="round"/>
</g>
<defs>
<clipPath id="clip0_25441_1199">
<rect width="16" height="16" fill="white"/>
</clipPath>
</defs>
</g>
</svg>
